<?xml version="1.0" encoding="UTF-8" standalone="no"?>
<svg
   id="Layer_1"
   data-name="Layer 1"
   viewBox="0 0 258 258"
   version="1.1"
   sodipodi:docname="ednaoutlinesvg.svg"
   inkscape:export-filename="ednaoutlinethumb.png"
   inkscape:export-xdpi="9.3023252"
   inkscape:export-ydpi="9.3023252"
   inkscape:version="1.4.2 (ebf0e94, 2025-05-08)"
   xmlns:inkscape="http://www.inkscape.org/namespaces/inkscape"
   xmlns:sodipodi="http://sodipodi.sourceforge.net/DTD/sodipodi-0.dtd"
   xmlns="http://www.w3.org/2000/svg"
   xmlns:svg="http://www.w3.org/2000/svg">
  <sodipodi:namedview
     id="namedview13"
     pagecolor="#ffffff"
     bordercolor="#000000"
     borderopacity="0.25"
     inkscape:showpageshadow="2"
     inkscape:pageopacity="0.0"
     inkscape:pagecheckerboard="0"
     inkscape:deskcolor="#d1d1d1"
     inkscape:zoom="3.6046512"
     inkscape:cx="128.86129"
     inkscape:cy="128.86129"
     inkscape:window-width="1920"
     inkscape:window-height="1057"
     inkscape:window-x="1912"
     inkscape:window-y="393"
     inkscape:window-maximized="1"
     inkscape:current-layer="Layer_1" />
  <defs
     id="defs1">
    <style
       id="style1">
      .cls-1 {
        fill: #7f1416;
      }

      .cls-1, .cls-2 {
        stroke: #fff;
        stroke-miterlimit: 10;
        stroke-width: 8px;
      }

      .cls-2 {
        fill: none;
      }
    </style>
  </defs>
  <circle
     class="cls-1"
     cx="129"
     cy="129"
     r="125"
     id="circle1"
     style="fill:#a52714;fill-opacity:1" />
  <g
     id="g13">
    <path
       class="cls-2"
       d="M50.69,113.12c1.87,14.03,14.28,24.03,27.49,23.05,11.9-.88,22-10.49,23.6-23.05"
       id="path1" />
    <path
       class="cls-2"
       d="M101.78,113.12c1.87,14.03,14.28,24.03,27.49,23.05,11.9-.88,22-10.49,23.6-23.05"
       id="path2" />
    <path
       class="cls-2"
       d="M152.88,113.12c1.87,14.03,14.28,24.03,27.49,23.05,11.9-.88,22-10.49,23.6-23.05"
       id="path3" />
    <path
       class="cls-2"
       d="M78.27,67.07c1.87,14.03,14.28,24.03,27.49,23.05,11.9-.88,22-10.49,23.6-23.05"
       id="path4" />
    <path
       class="cls-2"
       d="M129.36,67.07c1.87,14.03,14.28,24.03,27.49,23.05,11.9-.88,22-10.49,23.6-23.05"
       id="path5" />
    <path
       class="cls-2"
       d="M76.24,159.17c1.87,14.03,14.28,24.03,27.49,23.05,11.9-.88,22-10.49,23.6-23.05"
       id="path6" />
    <path
       class="cls-2"
       d="M127.33,159.17c1.87,14.03,14.28,24.03,27.49,23.05,11.9-.88,22-10.49,23.6-23.05"
       id="path7" />
    <path
       class="cls-2"
       d="M54.66,90.15c11.9-.88,22-10.49,23.6-23.05"
       id="path8" />
    <path
       class="cls-2"
       d="M180.45,67.07c1.87,14.03,14.28,24.03,27.49,23.05"
       id="path9" />
    <path
       class="cls-2"
       d="M203.97,113.12c1.87,14.03,14.28,24.03,27.49,23.05"
       id="path10" />
    <path
       class="cls-2"
       d="M178.42,159.17c1.87,14.03,14.28,24.03,27.49,23.05"
       id="path11" />
    <path
       class="cls-2"
       d="M27.09,136.33c11.9-.88,22-10.49,23.6-23.05"
       id="path12" />
    <path
       class="cls-2"
       d="M52.64,182.25c11.9-.88,22-10.49,23.6-23.05"
       id="path13" />
  </g>
</svg>
