<?xml version="1.0" encoding="UTF-8"?>
<svg id="Layer_1" data-name="Layer 1" xmlns="http://www.w3.org/2000/svg" viewBox="0 0 258 258">
  <defs>
    <style>
      .cls-1 {
        fill: #7f1416;
        stroke: #fff;
      }

      .cls-1, .cls-2 {
        stroke-miterlimit: 10;
        stroke-width: 8px;
      }

      .cls-2 {
        stroke: #7f1416;
      }

      .cls-2, .cls-3 {
        fill: #fff;
      }
    </style>
  </defs>
  <circle class="cls-1" cx="129" cy="129" r="125"/>
  <path class="cls-3" d="M83.33,54.78c-.91.04-3.56.21-6.83,1.29-4.74,1.58-7.84,4.11-9.65,5.62-8.51,7.09-13.71,18.78-14.83,21.38-1.3,2.88-2.78,6.61-4.06,11.06-1.91,6.67-2.54,12.04-2.76,14.35-.52,5.43-1.09,11.85.8,19.73.2.84.99,4.02,2.65,7.98,1.11,2.65,3.23,7.6,7.64,12.83,3.08,3.66,5.95,5.87,6.67,6.42,1.56,1.18,4.45,3.18,8.46,4.89,5.31,2.25,9.74,2.78,10.87,2.9,6.59.7,11.66-.59,14.34-1.31,2.68-.71,6.93-1.88,11.57-4.97,6.5-4.33,9.77-9.78,11.55-12.82,3.87-6.62,4.98-12.52,5.72-16.65,1.56-8.77.76-15.64.21-20.02-.54-4.3-1.93-12.39-6.11-21.75-2.04-4.56-5.43-11.98-12.56-19.4-7.9-8.23-14.37-10.18-15.69-10.56-4.01-1.13-7.69-1-7.98-.98Z"/>
  <path class="cls-3" d="M178.93,59.35c-.95-.13-3.74-.45-7.34.08-5.22.76-8.92,2.82-11.09,4.06-10.17,5.8-17.75,17-19.4,19.5-1.89,2.76-4.12,6.36-6.27,10.76-3.23,6.58-4.87,12.05-5.54,14.42-1.55,5.56-3.33,12.13-2.83,20.68.05.91.28,4.36,1.28,8.79.67,2.97,1.95,8.5,5.57,14.76,2.53,4.38,5.1,7.21,5.75,7.91,1.41,1.52,4.04,4.14,7.9,6.66,5.1,3.33,9.62,4.7,10.77,5.04,6.73,1.96,12.24,1.54,15.16,1.3,2.92-.25,7.56-.67,12.96-3.03,7.56-3.3,11.97-8.36,14.39-11.2,5.26-6.17,7.51-12.1,9.04-16.27,3.25-8.83,3.69-16.13,3.93-20.79.24-4.58.29-13.25-2.33-23.76-1.27-5.12-3.43-13.47-9.47-22.52-6.7-10.03-13.06-13.26-14.36-13.89-3.96-1.92-7.81-2.46-8.12-2.51Z"/>
  <path class="cls-2" d="M130.23,94.61c-.99,0-3.9.07-7.52,1.11-5.25,1.51-8.75,4.14-10.8,5.72-9.61,7.37-15.81,19.91-17.15,22.71-1.55,3.09-3.33,7.1-4.92,11.91-2.39,7.2-3.31,13.04-3.65,15.56-.81,5.91-1.72,12.9,0,21.6.18.92.9,4.43,2.54,8.83,1.1,2.95,3.2,8.44,7.78,14.35,3.21,4.13,6.24,6.68,7.01,7.31,1.66,1.36,4.72,3.68,9.03,5.72,5.7,2.7,10.52,3.47,11.75,3.65,7.17,1.06,12.76-.13,15.72-.79,2.96-.66,7.66-1.75,12.86-4.92,7.29-4.45,11.1-10.25,13.18-13.5,4.53-7.07,6-13.46,6.99-17.95,2.1-9.51,1.52-17.06,1.11-21.86-.4-4.73-1.56-13.62-5.72-24.03-2.02-5.07-5.4-13.33-12.86-21.76-8.27-9.34-15.25-11.76-16.67-12.23-4.33-1.41-8.36-1.43-8.68-1.43Z"/>
</svg>