<?xml version="1.0" encoding="UTF-8" standalone="no"?>
<svg
   id="Layer_2"
   viewBox="0 0 250.19398 252.67138"
   version="1.1"
   width="250.19398"
   height="252.67137"
   xmlns="http://www.w3.org/2000/svg"
   xmlns:svg="http://www.w3.org/2000/svg">
  <defs
     id="defs1">
    <style
       id="style1">.cls-1{fill:#fff;}.cls-2{fill:#761213;stroke:#fff;stroke-miterlimit:10;stroke-width:.25px;}</style>
  </defs>
  <ellipse
     style="fill:#800000;fill-opacity:1;fill-rule:evenodd;stroke:#ffffff;stroke-width:5.27682;stroke-dasharray:none;stroke-opacity:1"
     id="path2"
     cx="125.097"
     cy="-126.33569"
     transform="scale(1,-1)"
     ry="123.69727"
     rx="122.45859" />
  <g
     id="Layer_1-2"
     transform="matrix(25.913999,0,0,26.412293,32.342673,31.076259)"
     style="fill:#ffffff;fill-opacity:1;stroke:none">
    <path
       class="cls-1"
       d="M 1.06,2.95 C 0.99,2.53 0.9,2.12 1.11,1.7 1.18,1.91 1.25,2.1 1.32,2.3 1.39,2.5 1.39,2.71 1.4,2.92 1.4,3 1.43,3.05 1.51,3.03 c 0.2,-0.05 0.33,0.08 0.47,0.18 0,0 0.01,0.01 0.02,0.02 0,0 0.02,0 0.02,-0.02 C 2.1,3.12 2.2,3.11 2.3,3.17 2.41,3.24 2.52,3.26 2.64,3.2 c 0.04,-0.02 0.1,0 0.15,0 0.05,0 0.1,0.03 0.15,0.05 0.08,0.05 0.16,0.06 0.25,0.02 0.12,-0.05 0.23,0 0.34,0.05 0.05,0.02 0.1,0.03 0.15,0 C 3.8,3.26 3.91,3.3 4.02,3.37 4.07,3.4 4.11,3.41 4.17,3.38 4.29,3.32 4.38,3.37 4.46,3.45 4.49,3.48 4.52,3.5 4.57,3.48 4.7,3.44 4.82,3.46 4.91,3.57 4.94,3.6 4.97,3.6 5.01,3.59 5.15,3.55 5.29,3.5 5.44,3.47 5.56,3.45 5.68,3.47 5.78,3.53 5.9,3.6 5.93,3.68 5.9,3.81 5.9,3.85 5.88,3.88 5.86,3.93 5.89,3.91 5.9,3.89 5.92,3.88 6.06,3.76 6.25,3.78 6.35,3.93 6.42,4.03 6.47,4.14 6.47,4.27 6.59,4.24 6.7,4.09 6.84,4.24 6.75,4.29 6.66,4.35 6.56,4.4 c 0,0.03 0.02,0.06 0.02,0.08 0,0.05 0.01,0.09 -0.05,0.11 -0.06,0.02 -0.07,0.08 -0.05,0.14 0,0.02 0,0.07 -0.02,0.08 C 6.31,4.88 6.3,4.98 6.38,5.12 6.24,5.06 6.22,5.03 6.19,4.84 6.09,4.91 5.98,4.94 5.86,4.93 5.65,4.91 5.57,4.83 5.54,4.63 5.45,4.65 5.36,4.68 5.26,4.69 5.08,4.71 4.95,4.63 4.88,4.46 4.86,4.41 4.84,4.37 4.83,4.32 4.81,4.23 4.74,4.2 4.66,4.19 4.6,4.17 4.53,4.15 4.47,4.13 c -0.02,0 -0.04,0 -0.06,0 C 4.38,4.13 4.35,4.15 4.32,4.16 4.22,4.2 4.13,4.18 4.07,4.09 4.05,4.05 4.02,4.05 3.98,4.06 3.94,4.07 3.9,4.08 3.86,4.09 3.76,4.11 3.68,4.09 3.62,4.01 3.59,3.97 3.56,3.97 3.52,3.98 3.47,3.99 3.41,4 3.36,4.01 3.25,4.03 3.15,4.01 3.07,3.93 3.04,3.9 3.01,3.89 2.96,3.9 2.9,3.91 2.83,3.92 2.77,3.92 2.68,3.92 2.59,3.92 2.52,3.85 2.48,3.82 2.45,3.82 2.41,3.82 2.3,3.82 2.2,3.83 2.09,3.82 2.04,3.82 2,3.78 1.95,3.76 1.92,3.75 1.9,3.74 1.87,3.73 1.66,3.71 1.48,3.63 1.33,3.47 1.22,3.36 1.07,3.32 0.91,3.33 c -0.1,0 -0.21,0 -0.31,0 C 0.51,3.33 0.48,3.25 0.46,3.18 0.44,3.11 0.43,3.03 0.49,2.98 0.52,2.95 0.58,2.94 0.63,2.94 c 0.13,0 0.26,0 0.4,0 z"
       id="path1"
       style="fill:#ffffff;fill-opacity:1;stroke:none;stroke-width:0.125;stroke-dasharray:none;stroke-opacity:1" />
  </g>
</svg>
