<?xml version="1.0" encoding="UTF-8"?>
<svg id="Layer_1" data-name="Layer 1" xmlns="http://www.w3.org/2000/svg" viewBox="0 0 258 258">
  <defs>
    <style>
      .cls-1 {
        fill: #7f1416;
        stroke: #fff;
        stroke-miterlimit: 10;
        stroke-width: 8px;
      }

      .cls-2 {
        fill: #fff;
      }
    </style>
  </defs>
  <circle class="cls-1" cx="129" cy="129" r="125"/>
  <path class="cls-2" d="M191.92,72.82c3.09-3.81,7.97-9.7,10.32-12.77.48-.71,1.09-1.48.42-2.14-.46-.38-1.51-.61-2.93-.84-2.98-.31-6.39-1.25-9.37-.67-2.83.76-4.86,3.16-7.31,5.27-1.93,1.78-3.36,3.52-4.71,5.69-1.28,1.9-2.53,4.9-5.18,4.9-2.06-.04-4.37-1.61-6.63-2.54-3.18-1.41-6.57-2.31-9.9-3.37-5.66-2.25-9.82-.83-15.24-.18h-.17c-4.37.12-9.31-1.04-13.78-1.53-3.78-.55-5.87-.71-9.69.5-2.48.69-5.19,1.49-7.66,2.18-2.49.69-4.54,1.15-6.87.15-2.28-.96-4.38-2.57-6.91-2.83-4.3-.16-9.9.94-13.74,3.39-2.73,1.91-5.67,4.23-8.81,5.34-4.12,1.62-8.43,2.06-12.72,2.95-10.2,1.47-6.43,9.04-11.77,14.4-2.07,1.88-5.8,3.72-7.73,5.58-2.84,2.85-3.38,7.34-4.13,11.16-.44,3.47.66,5.83.68,9.52.02,3.38-1.01,7.2-1.11,10.26-.14,2.98.34,5.94.81,8.9.55,2.99,1.11,5.85,2.81,7.98,1.81,2.54,4.51,4.4,5.88,7.25,2.25,5.1,1.46,12.01,6.24,16.09,2.37,2.48,6.15,3.56,8.99,5,1.9,1.2,2.41,4.06,3.39,6.08,1.99,4.49,4.38,8,7.79,11.19,7.87,6.58,26.97,23.71,35.01,20.35,2.4-1.01,4.27-2.77,7.04-2.46,3.28.45,6.89,2.09,10.14,3.02,4.6,1.76,8.92.92,13.86.82,9.87-.3,11.2.05,11.49-10.7,0-1.83-.33-2.55-2.7-2.8-1.06-.15-2.52-.29-4.23-.46-2.71-.28-5.59-.57-8.33-.85-5.4-.78-8.24-.27-12.66-1.73-2.65-1.1-4.06-2.34-7.44-1.84-2.68.21-6.22,1.59-8.66.32-1.49-1.14-.31-2.83-2.77-4.12-3.32-1.74,1.07.39-4.42-2.33-1.84-.91-2.11-1-2.3-3.04-.21-1.93-2.13-4.94-1.7-6.7.88-3.83-2.05-2.91-4-6-2.02-3.2-2.81-8.31-4.63-11.4-1.5-2.53,4.87-21.29,6.57-21.42.67-.05-1.55,5.91-1.94,10.63-.25,3.02,1.17,5.53,1.56,5.65,1.94.59,1.99,3.08,4.87,3.7,13.26,3.01,25.39,5.61,37.85,9.48,3.81,1.21,7.44,2.08,11.4,2.84,3.36.71,6.64,1.34,9.92.86,4.74-.72,9.11-.79,12.48-4.07,6.77-6.34,16.43-12.59,20.12-21.6,1.04-3.7.45-7.28,1.39-11.07.77-3.99,2.28-11.64,3.07-15.72.32-1.71.63-3.31.33-5.03-1.26-5.95-4.1-12.99-4.9-18.69-.45-2.87-.84-5.9-1.93-8.6-.84-2.16-1.83-3.99-1.14-6.27.99-3.09,3.82-5.13,5.68-7.67ZM176.64,152.61c-4.47,4.8-11.25,4.28-13.04,4.15-1.67-.13-6.9-.52-7.41-2.67-.75-3.16,9.35-7.82,14.22-10.07,5-2.31,7.82-3.57,9.19-2.37,1.89,1.67.28,7.49-2.96,10.96Z"/>
</svg>